<?xml version="1.0" encoding="UTF-8"?>
<svg id="Layer_1" xmlns="http://www.w3.org/2000/svg" version="1.1" viewBox="0 0 500 500">
  <!-- Generator: Adobe Illustrator 30.1.0, SVG Export Plug-In . SVG Version: 2.1.1 Build 136)  -->
  <defs>
    <style>
      .st0 {
        fill: #fff;
      }

      .st1 {
        fill: none;
      }

      .st2 {
        fill: #80bc41;
      }

      .st3 {
        fill: #bfdde0;
      }

      .st4 {
        fill: #e4178c;
      }

      .st5 {
        fill: #283d55;
      }

      .st6 {
        fill: #eeefa8;
      }
    </style>
  </defs>
  <g>
    <path class="st0" d="M244.32,109.34c13.19-2.48,24.5,6.37,26.81,18.1,2.51,12.73-5.86,24.72-18.21,27.11-12.27,2.37-24.07-5.49-26.8-17.45-2.81-12.36,4.73-25.23,18.2-27.75ZM244.36,118.83c-8.07,2.57-11.4,11.1-8.69,18.04,2.68,6.86,10.09,10.51,17.32,8.12,6.94-2.29,11.1-10.05,8.69-17.33-2.23-6.75-9.48-11.33-17.32-8.83Z"/>
    <path class="st0" d="M152.13,178.54c13.2-2.41,24.5,6.49,26.75,18.26,2.43,12.7-5.98,24.56-18.17,26.93-12.46,2.42-24.28-5.48-26.93-17.55-2.71-12.34,4.86-25.18,18.35-27.65ZM152.15,188.02c-8.08,2.55-11.54,11.01-8.75,18.19,2.59,6.66,10.02,10.47,17.35,8.02,6.82-2.28,11.1-9.96,8.62-17.42-2.18-6.57-9.38-11.26-17.22-8.78Z"/>
    <path class="st0" d="M336.48,178.58c13.12-2.55,24.54,6.19,26.92,17.96,2.58,12.76-5.64,24.79-18.19,27.22-12.16,2.35-24.13-5.34-26.85-17.64-2.67-12.08,4.68-24.92,18.13-27.53ZM336.49,188.09c-8.08,2.66-11.14,11.27-8.59,17.89,2.78,7.18,10.3,10.59,17.31,8.28,7.24-2.38,11.17-10.2,8.72-17.51-2.26-6.74-9.61-11.23-17.44-8.66Z"/>
    <path class="st0" d="M182.48,128.23c12.97-3.55,25.19,4.3,28.39,16.38,3.19,12.05-4.02,24.71-16.33,28.04s-24.21-3.52-27.92-15.24c-3.82-12.07,2.58-25.55,15.85-29.19ZM183.58,137.58c-7.94,3.05-10.82,11.81-7.39,18.95,2.96,6.18,10.63,9.41,17.43,6.73,7-2.76,10.52-10.68,7.91-17.61-2.62-6.97-10.18-11.05-17.95-8.06Z"/>
    <path class="st0" d="M303.08,128.07c13-3.17,25.01,4.95,27.87,17.01,2.92,12.32-4.62,24.99-17.6,27.85-11.49,2.53-23.76-4.38-27.05-16.51-3.21-11.86,3.43-25.09,16.78-28.35ZM303.06,137.76c-7.89,3.35-10.03,12.25-7.01,18.53,3.34,6.95,11.2,9.42,17.36,7.02,7.77-3.02,10.65-11.28,7.95-18.03-2.82-7.05-10.75-10.73-18.3-7.52Z"/>
    <g>
      <path class="st5" d="M114.46,208.31v-14.67c3.23-20.42,10.86-38.49,24.85-53.78,54.73-60.88,169.24-59.68,221.34,3.4,14.99,18.16,23.65,41.06,21.53,64.45-4,44.11-47.98,71.24-88.96,59.72-29.32-8.24-59.18-8.55-88.49-.16-23.29,6.66-47.56,1.35-66.06-13.9-14.19-11.71-21.3-27.61-24.22-45.06ZM244.32,109.34c-13.46,2.53-21.01,15.4-18.2,27.75,2.72,11.96,14.53,19.82,26.8,17.45,12.35-2.39,20.72-14.38,18.21-27.11-2.31-11.73-13.62-20.57-26.81-18.1ZM182.48,128.23c-13.28,3.63-19.67,17.12-15.85,29.19,3.71,11.71,16.08,18.44,27.92,15.24s19.52-15.99,16.33-28.04c-3.2-12.09-15.42-19.93-28.39-16.38ZM303.08,128.07c-13.36,3.26-20,16.5-16.78,28.35,3.29,12.13,15.56,19.04,27.05,16.51,12.98-2.86,20.52-15.53,17.6-27.85-2.86-12.07-14.87-20.18-27.87-17.01ZM152.13,178.54c-13.49,2.47-21.06,15.31-18.35,27.65,2.65,12.07,14.47,19.97,26.93,17.55,12.19-2.37,20.6-14.23,18.17-26.93-2.25-11.77-13.55-20.68-26.75-18.26ZM336.48,178.58c-13.45,2.61-20.8,15.45-18.13,27.53,2.72,12.3,14.69,19.99,26.85,17.64,12.55-2.42,20.77-14.46,18.19-27.22-2.38-11.77-13.8-20.5-26.92-17.96ZM286.41,234.61c3.31.32,7.04-1.88,8.64-4.6,5.01-8.5-7.34-22.7-21.31-24.38-10.08-1.21-19.35,2.73-25.59,10.73-2.18,2.79-2.51,7.26-.9,10.43,1.08,2.11,4.43,4.42,7.52,4.72l31.64,3.1Z"/>
      <path class="st5" d="M368.4,328.61l-129.02,3.14.05-25.42,128.47,3.13c5.74.14,9.59,4.15,9.78,9.33.16,4.38-2.92,9.67-9.28,9.83Z"/>
      <path class="st5" d="M177.3,345.65c-23.94,6.56-17.72-22.71-55.23-19.88,8.15-19.58,25.33-33.98,47.48-32.08,14.44,1.24,24.37,13.42,23.69,27.74-.52,10.73-6.13,19.83-15.94,24.22Z"/>
      <path class="st5" d="M230.17,331.84l-29.59.89c2.48-9.55,2.4-17.7-.87-27.31l30.36.69.1,25.73Z"/>
    </g>
    <path class="st4" d="M244.36,118.83c7.84-2.5,15.09,2.09,17.32,8.83,2.41,7.28-1.75,15.05-8.69,17.33-7.24,2.38-14.65-1.26-17.32-8.12-2.71-6.94.62-15.47,8.69-18.04Z"/>
    <path class="st2" d="M152.15,188.02c7.84-2.48,15.05,2.22,17.22,8.78,2.48,7.47-1.8,15.14-8.62,17.42-7.33,2.45-14.75-1.36-17.35-8.02-2.79-7.18.66-15.63,8.75-18.19Z"/>
    <path class="st5" d="M336.49,188.09c7.82-2.57,15.18,1.92,17.44,8.66,2.45,7.31-1.48,15.13-8.72,17.51-7.01,2.31-14.53-1.1-17.31-8.28-2.56-6.62.51-15.23,8.59-17.89Z"/>
    <path class="st6" d="M183.58,137.58c7.77-2.99,15.34,1.1,17.95,8.06,2.6,6.93-.91,14.85-7.91,17.61-6.8,2.68-14.46-.55-17.43-6.73-3.43-7.14-.55-15.9,7.39-18.95Z"/>
    <path class="st3" d="M303.06,137.76c7.54-3.21,15.47.47,18.3,7.52,2.7,6.75-.17,15.01-7.95,18.03-6.17,2.4-14.02-.07-17.36-7.02-3.02-6.28-.87-15.18,7.01-18.53Z"/>
    <rect class="st1" x="114.46" y="86.79" width="269.23" height="269.23"/>
    <rect class="st1" x="114.46" y="86.79" width="270.37" height="270.37"/>
    <rect class="st1" x="114.46" y="86.79" width="269.23" height="269.23"/>
  </g>
  <g>
    <path class="st5" d="M102.42,412.66h-16.05v-1.77c.62-.25,1.33-.5,2.12-.77.79-.26,1.59-.46,2.4-.58v-26.49h-5.41l-2.98,7.98h-1.91c-.12-.62-.25-1.41-.37-2.38-.12-.96-.23-1.96-.33-2.99-.09-1.03-.17-2.04-.23-3.05-.06-1.01-.09-1.87-.09-2.59h29.67c0,.75-.03,1.62-.09,2.61-.06.99-.14,2.01-.23,3.03-.09,1.03-.2,2.01-.33,2.96-.12.95-.25,1.75-.37,2.4h-1.91l-2.99-7.98h-5.41v26.49c.81.16,1.61.34,2.4.56.79.22,1.5.48,2.12.79v1.77Z"/>
    <path class="st5" d="M139.22,412.66h-12.36v-1.77c.37-.22.76-.42,1.17-.61.4-.19.87-.36,1.4-.51v-9.45c0-2.68-.26-4.65-.77-5.91-.51-1.26-1.52-1.89-3.01-1.89-1.25,0-2.3.43-3.17,1.29-.87.86-1.49,1.85-1.86,2.97v13c.5.12.94.27,1.33.42.39.16.8.39,1.24.7v1.77h-12.36v-1.77c.96-.5,1.99-.87,3.08-1.12v-28.36l-3.54-.37v-1.77c.47-.19,1.07-.37,1.8-.56.73-.19,1.5-.35,2.31-.49s1.62-.26,2.43-.37c.81-.11,1.52-.19,2.15-.26h1.59v16.46h.05c.31-.71.73-1.39,1.26-2.03.53-.64,1.13-1.2,1.8-1.68.67-.48,1.39-.86,2.17-1.14s1.6-.42,2.47-.42c1.24,0,2.36.15,3.34.44.98.3,1.8.82,2.45,1.57.65.75,1.15,1.75,1.49,3.01.34,1.26.51,2.86.51,4.79v11.17c.53.12,1.06.27,1.59.42.53.16,1.02.39,1.49.7v1.77Z"/>
    <path class="st5" d="M162.45,408.74c-.25.53-.65,1.07-1.19,1.61-.54.54-1.21,1.03-2.01,1.44-.79.42-1.71.76-2.75,1.03-1.04.26-2.17.4-3.38.4-1.93,0-3.64-.29-5.13-.86-1.49-.57-2.74-1.4-3.73-2.47-1-1.07-1.75-2.36-2.26-3.85-.51-1.49-.77-3.17-.77-5.04,0-3.98,1.04-7.01,3.13-9.1,2.08-2.08,4.97-3.12,8.67-3.12,1.59,0,3.07.22,4.46.65,1.38.44,2.53,1.15,3.45,2.15.92,1,1.55,2.3,1.91,3.92.36,1.62.33,3.59-.07,5.92h-14.32c.03,2.46.66,4.42,1.89,5.88,1.23,1.46,3.04,2.19,5.43,2.19,1.03,0,2.09-.15,3.2-.47,1.11-.31,1.97-.72,2.59-1.21l.89.93ZM152.82,391.43c-.62,0-1.17.11-1.65.33s-.9.61-1.25,1.19c-.35.58-.64,1.35-.86,2.33-.22.98-.37,2.22-.46,3.71h7.46c.22-2.43.08-4.29-.42-5.6-.49-1.31-1.44-1.96-2.83-1.96Z"/>
    <path class="st5" d="M202.61,402.86h1.91c.12.5.24,1.1.35,1.8.11.7.2,1.44.28,2.24.08.79.13,1.58.16,2.36.03.78.05,1.48.05,2.1-1.09.68-2.45,1.17-4.08,1.45-1.63.28-3.3.42-5.02.42-2.58,0-4.92-.32-7.02-.96-2.1-.64-3.89-1.65-5.37-3.03s-2.62-3.14-3.43-5.27c-.81-2.13-1.21-4.69-1.21-7.67s.44-5.5,1.33-7.63c.89-2.13,2.08-3.88,3.57-5.25,1.49-1.37,3.22-2.37,5.2-3.01,1.97-.64,4.05-.96,6.23-.96,2.05,0,3.91.15,5.57.44,1.66.3,3.02.69,4.08,1.19,0,.5-.02,1.14-.07,1.91-.04.78-.12,1.59-.23,2.45s-.23,1.69-.37,2.52c-.14.82-.27,1.52-.4,2.08h-1.96l-2.56-7.04c-.28-.16-.73-.28-1.35-.37-.62-.09-1.26-.14-1.91-.14-1.27,0-2.47.26-3.59.77-1.12.51-2.11,1.33-2.98,2.45-.87,1.12-1.56,2.56-2.05,4.31-.5,1.76-.74,3.86-.74,6.32,0,4.45.88,7.87,2.66,10.26,1.77,2.4,4.18,3.59,7.23,3.59.87,0,1.61-.07,2.21-.21.61-.14,1.02-.33,1.24-.58l2.29-6.53Z"/>
    <path class="st5" d="M221.36,394.7c-.37.19-.81.5-1.31.94-.5.44-.95,1.15-1.35,2.15v11.98c.62.06,1.24.18,1.86.35.62.17,1.24.43,1.86.77v1.77h-13.53v-1.77c.56-.31,1.09-.55,1.59-.7s1-.3,1.49-.42v-17.16l-3.08-.37v-1.77c.5-.22,1.11-.42,1.84-.61.73-.19,1.49-.35,2.26-.49.78-.14,1.53-.26,2.26-.35.73-.09,1.35-.17,1.84-.23h1.59v6.2h.18c.25-.68.61-1.4,1.1-2.15.48-.75,1.05-1.43,1.7-2.05.66-.62,1.37-1.12,2.15-1.49s1.59-.54,2.43-.51c.34.44.64,1.05.89,1.84.25.79.45,1.55.61,2.26v1.82h-6.39Z"/>
    <path class="st5" d="M249.86,405.89c0,.68,0,1.28.02,1.77.01.5.05,1.03.12,1.59l3.22.47v1.63c-.37.19-.88.37-1.52.56-.64.19-1.31.37-2.01.54s-1.39.31-2.08.42-1.29.19-1.82.26h-1.59c-.31-.72-.5-1.43-.56-2.15-.06-.72-.11-1.59-.14-2.61h-.23c-.16.62-.42,1.22-.79,1.8-.37.58-.85,1.09-1.42,1.54s-1.25.82-2.03,1.1c-.78.28-1.65.42-2.61.42-1.03,0-1.97-.16-2.85-.47-.87-.31-1.63-.75-2.29-1.31-.65-.56-1.17-1.24-1.54-2.03-.37-.79-.56-1.69-.56-2.68,0-1.4.27-2.55.79-3.45.53-.9,1.36-1.64,2.5-2.21,1.13-.58,2.6-1,4.38-1.28,1.79-.28,3.96-.48,6.51-.61.25-2.67.14-4.63-.33-5.88-.47-1.24-1.48-1.87-3.03-1.87-.96,0-1.85.16-2.66.47l-2.19,5.6h-2.05c-.25-.37-.49-.8-.72-1.28-.23-.48-.45-.99-.65-1.54s-.37-1.1-.51-1.66c-.14-.56-.24-1.1-.3-1.63,1.18-.81,2.7-1.45,4.57-1.91,1.87-.47,3.84-.7,5.92-.7,1.77,0,3.22.19,4.34.58,1.12.39,2,.92,2.64,1.59.64.67,1.08,1.45,1.33,2.36.25.9.37,1.86.37,2.89,0,1.87-.04,3.55-.12,5.06-.08,1.51-.12,3.06-.12,4.64ZM239.37,409.48c.65,0,1.21-.12,1.68-.37.47-.25.86-.54,1.19-.89.33-.34.57-.71.75-1.12s.3-.76.4-1.07v-4.66c-1.46.03-2.66.12-3.59.28-.93.16-1.66.41-2.19.77-.53.36-.89.81-1.1,1.35-.2.54-.3,1.21-.3,1.98,0,1.18.28,2.1.84,2.75.56.65,1.34.98,2.33.98Z"/>
    <path class="st5" d="M268.89,377.58c1.27,0,2.42.12,3.43.35,1.01.23,1.78.46,2.31.68-.09,1.03-.3,2.08-.61,3.17-.31,1.09-.59,1.99-.84,2.7h-1.59l-2.05-4.43c-.81,0-1.49.09-2.03.26-.54.17-.98.51-1.31,1-.33.5-.57,1.21-.72,2.12-.16.92-.23,2.11-.23,3.57v2.33h4.94v3.03h-4.94v17.4c1.62.19,3.11.56,4.48,1.12v1.77h-14.27v-1.77c.96-.56,1.99-.93,3.08-1.12v-17.4h-3.54v-1.87c1.09-.7,2.27-1.23,3.54-1.58v-1.63c0-1.93.27-3.52.82-4.78.54-1.26,1.28-2.25,2.21-2.99.93-.73,2.03-1.24,3.29-1.52,1.26-.28,2.6-.42,4.04-.42Z"/>
    <path class="st5" d="M271.64,390.5c1.18-.77,2.43-1.31,3.73-1.63v-3.78c.25-.19.86-.46,1.84-.82.98-.36,2.08-.65,3.29-.86h1.59v5.92h6.16v3.03h-6.16v12.02c0,1.92.24,3.25.72,3.99.48.74,1.28,1.11,2.4,1.11.56,0,1.19-.04,1.89-.12.7-.08,1.35-.23,1.94-.44l.33,1.54c-.28.28-.69.58-1.24.89-.55.31-1.17.61-1.87.89s-1.46.51-2.28.7c-.82.19-1.69.28-2.59.28-2.02,0-3.53-.53-4.53-1.58-1-1.05-1.49-2.76-1.49-5.11v-14.16h-3.73v-1.87Z"/>
    <path class="st5" d="M325.33,380h11.57v1.82c-.59.47-1.25.88-1.96,1.23s-1.38.63-2.01.81v29.34h-3.96l-16.47-23.79-1.86-3.59h-.14l.42,3.73v19.45c.62.16,1.31.41,2.08.77.76.36,1.41.72,1.93,1.1v1.77h-11.52v-1.77c.56-.37,1.17-.72,1.84-1.05.67-.33,1.36-.6,2.07-.81v-25.43c-.62-.25-1.24-.53-1.86-.84-.62-.31-1.18-.64-1.68-.98v-1.77h10.08l13.39,19.4,2.15,4.01h.19l-.23-4v-15.55c-.75-.25-1.47-.55-2.17-.91-.7-.36-1.31-.74-1.84-1.14v-1.82Z"/>
    <path class="st5" d="M339.27,400.99c0-1.9.29-3.6.86-5.11.57-1.51,1.4-2.79,2.47-3.85,1.07-1.06,2.37-1.87,3.89-2.43,1.52-.56,3.25-.84,5.18-.84,2.18,0,4.05.3,5.62.91,1.57.61,2.86,1.45,3.87,2.52,1.01,1.07,1.75,2.36,2.21,3.87.47,1.51.7,3.15.7,4.92,0,1.9-.28,3.6-.84,5.11-.56,1.51-1.37,2.79-2.45,3.85-1.07,1.06-2.38,1.86-3.92,2.43-1.54.56-3.27.84-5.2.84-2.11,0-3.95-.3-5.5-.91-1.56-.61-2.85-1.45-3.87-2.52-1.03-1.07-1.79-2.36-2.29-3.87-.5-1.51-.75-3.15-.75-4.92ZM346.5,400.99c0,1.4.08,2.68.26,3.85.17,1.17.47,2.15.91,2.96s1.03,1.44,1.77,1.89c.75.45,1.71.68,2.89.68.68,0,1.31-.16,1.86-.49.56-.33,1.04-.86,1.45-1.59.4-.73.71-1.69.91-2.89.2-1.2.3-2.67.3-4.41,0-1.43-.08-2.72-.26-3.87-.17-1.15-.47-2.13-.89-2.94-.42-.81-.99-1.44-1.7-1.89-.72-.45-1.62-.68-2.7-.68-.81,0-1.51.16-2.1.49s-1.09.86-1.49,1.59c-.4.73-.71,1.7-.91,2.89-.2,1.2-.3,2.67-.3,4.41Z"/>
    <path class="st5" d="M366.98,400.99c0-1.9.29-3.6.86-5.11.57-1.51,1.4-2.79,2.47-3.85,1.07-1.06,2.37-1.87,3.89-2.43,1.52-.56,3.25-.84,5.18-.84,2.18,0,4.05.3,5.62.91,1.57.61,2.86,1.45,3.87,2.52,1.01,1.07,1.75,2.36,2.21,3.87.47,1.51.7,3.15.7,4.92,0,1.9-.28,3.6-.84,5.11-.56,1.51-1.37,2.79-2.45,3.85-1.07,1.06-2.38,1.86-3.92,2.43-1.54.56-3.27.84-5.2.84-2.11,0-3.95-.3-5.5-.91-1.56-.61-2.85-1.45-3.87-2.52-1.03-1.07-1.79-2.36-2.29-3.87s-.75-3.15-.75-4.92ZM374.21,400.99c0,1.4.08,2.68.26,3.85.17,1.17.47,2.15.91,2.96s1.03,1.44,1.77,1.89c.75.45,1.71.68,2.89.68.68,0,1.31-.16,1.86-.49.56-.33,1.04-.86,1.45-1.59.4-.73.71-1.69.91-2.89.2-1.2.3-2.67.3-4.41,0-1.43-.08-2.72-.26-3.87-.17-1.15-.47-2.13-.89-2.94-.42-.81-.99-1.44-1.7-1.89-.72-.45-1.62-.68-2.7-.68-.81,0-1.51.16-2.1.49s-1.09.86-1.49,1.59c-.4.73-.71,1.7-.91,2.89-.2,1.2-.3,2.67-.3,4.41Z"/>
    <path class="st5" d="M408.26,389.33h10.91v1.77c-.59.25-1.14.47-1.66.66-.51.19-1.08.34-1.7.47-.47.63-.97,1.24-1.52,1.85-.54.61-1.09,1.2-1.63,1.76-.54.56-1.07,1.1-1.56,1.62-.5.52-.95.98-1.35,1.38.47.62,1.01,1.37,1.63,2.25.62.87,1.29,1.8,2.01,2.79.72.98,1.47,1.98,2.26,3,.79,1.01,1.59,1.98,2.4,2.88l2.38,1.12v1.77h-7.88l-1.26-1.12c-.72-.96-1.35-1.87-1.89-2.7-.55-.84-1.03-1.65-1.47-2.43-.43-.78-.86-1.53-1.26-2.26-.4-.73-.81-1.45-1.21-2.17l-1.54-.47v8.25c.53.09,1.01.24,1.45.42.43.19.9.42,1.4.7v1.77h-12.64v-1.77c1.02-.5,2.05-.87,3.08-1.12v-28.36l-3.54-.37v-1.77c.44-.19,1.03-.37,1.77-.56.75-.19,1.54-.35,2.38-.49.84-.14,1.66-.26,2.47-.37.81-.11,1.49-.19,2.05-.26h1.59v21.88h1.21c1.03-1.09,1.98-2.3,2.87-3.61.88-1.31,1.67-2.52,2.36-3.61-.41-.12-.77-.28-1.1-.47-.33-.19-.66-.41-1-.66v-1.77Z"/>
  </g>
</svg>